<svg xmlns="http://www.w3.org/2000/svg" version="1.1" xmlns:xlink="http://www.w3.org/1999/xlink" width="1000" height="1000"><metadata><rdf:RDF xmlns:rdf="http://www.w3.org/1999/02/22-rdf-syntax-ns#" xmlns:dc="http://purl.org/dc/elements/1.1/"><rdf:Description><dc:creator>RealFaviconGenerator</dc:creator><dc:source>https://realfavicongenerator.net</dc:source></rdf:Description></rdf:RDF></metadata><style>
    #light-icon {
      display: inline;
    }
    #dark-icon {
      display: none;
    }

    @media (prefers-color-scheme: dark) {
      #light-icon {
        display: none;
      }
      #dark-icon {
        display: inline;
      }
    }
  </style><g id="light-icon"><svg xmlns="http://www.w3.org/2000/svg" version="1.1" xmlns:xlink="http://www.w3.org/1999/xlink" width="1000" height="1000"><g clip-path="url(#SvgjsClipPath1089)"><rect width="1000" height="1000" fill="#ffffff"></rect><g transform="matrix(0.25,0,0,0.25,0,0)"><svg xmlns="http://www.w3.org/2000/svg" version="1.1" viewBox="0 0 4000 4000" width="4000" height="4000"><g>
    <g id="Layer_1">
      <rect width="4000" height="4000" style="fill: #fff;"></rect>
      <g>
        <path d="M1460.279,1987.982s-24.931,112.194,32.056,181.647c56.987,69.454,197.676,101.509,197.676,101.509,0,0-76.578-146.03-229.731-283.156M2539.721,1987.982s24.931,112.194-32.055,181.647c-56.988,69.454-197.676,101.509-197.676,101.509,0,0,76.578-146.03,229.731-283.156ZM2000,3445.615s-49.038-140.689-196.849-222.607c0,0,10.685,67.673,40.96,126.441,0,0-240.414-233.293-222.607-484.394,0,0-247.543-150.486-475.492-171.856l90.824-43.63s-231.515-99.725-391.791-105.068l96.166-64.111s-126.44-30.275-194.113-154.935c0,0,89.042,32.055,167.401,33.836,0,0-320.557-172.746-350.831-439.875,0,0,174.524,138.906,418.502,163.839,0,0-151.374-80.14-222.607-331.24,0,0,97.06,98.836,184.32,127.33,0,0-67.675-113.975-60.55-178.975,0,0,47.731,43.718,156.713,70.345,0,0-112.195-119.317-131.784-215.483l-20.48-89.045s81.919,51.646,211.922,94.386l44.521,17.81s-90.822-106.853-144.249-322.337c0,0,12.467,23.153,87.262,62.331,0,0-99.727-186.989-110.413-349.048,0,0,23.148,40.958,58.766,80.137,0,0-58.768-153.154,12.467-495.078,0,0,142.469,260.005,272.472,368.638,0,0-10.686-96.166,7.122-169.182,0,0,23.153,101.508,96.167,167.4,73.015,65.892,163.838,122.879,188.771,172.743,0,0-7.124-167.401,128.222-322.335l5.343,103.289s73.016-48.082,135.345-121.098c62.33-73.015,118.501-183.429,118.501-183.429,0,0,56.171,110.413,118.501,183.429,62.33,73.016,135.346,121.098,135.346,121.098l5.343-103.289c135.346,154.935,128.222,322.335,128.222,322.335,24.932-49.865,115.756-106.851,188.771-172.743,73.013-65.892,96.167-167.4,96.167-167.4,17.809,73.016,7.122,169.182,7.122,169.182,130.003-108.632,272.472-368.638,272.472-368.638,71.235,341.924,12.467,495.078,12.467,495.078,35.618-39.179,58.766-80.137,58.766-80.137-10.685,162.059-110.413,349.048-110.413,349.048,74.795-39.179,87.262-62.331,87.262-62.331-53.426,215.483-144.249,322.337-144.249,322.337l44.521-17.81c130.002-42.74,211.922-94.386,211.922-94.386l-20.481,89.045c-19.589,96.166-131.783,215.483-131.783,215.483,108.982-26.627,156.713-70.345,156.713-70.345,7.124,65-60.55,178.975-60.55,178.975,87.261-28.494,184.321-127.33,184.321-127.33-71.234,251.1-222.608,331.24-222.608,331.24,243.978-24.933,418.502-163.839,418.502-163.839-30.274,267.129-350.831,439.875-350.831,439.875,78.359-1.781,167.401-33.836,167.401-33.836-67.674,124.66-194.113,154.935-194.113,154.935l96.166,64.111c-160.276,5.343-391.791,105.068-391.791,105.068l90.824,43.63c-227.949,21.37-475.492,171.856-475.492,171.856,17.808,251.101-222.607,484.394-222.607,484.394,30.276-58.768,40.96-126.441,40.96-126.441-147.811,81.919-196.849,222.607-196.849,222.607ZM1681.165,2871.289s-11.578,88.153,72.122,194.115c83.7,105.962,246.713,189.662,246.713,189.662,0,0,163.014-83.7,246.713-189.662,83.7-105.962,72.122-194.115,72.122-194.115-183.122,202.812-454.548,202.812-637.67,0ZM2000,2720.807s-78.417-19.59-110.474-23.151c-32.056-3.562-56.098-8.015-60.55,39.179,0,0,65.893,7.124,78.359,66.783,12.465,59.659,34.847,125.551,92.665,146.921,57.819-21.37,80.2-87.261,92.666-146.921,12.466-59.659,78.359-66.783,78.359-66.783-4.452-47.194-28.494-42.741-60.55-39.179-32.056,3.561-110.474,23.151-110.474,23.151ZM2000,2432.285s-21.391-73.904-91.734-63.219c-70.344,10.685-96.169,113.086-81.922,195.004,0,0-28.495-130.004-56.989-162.059-107.927-121.419-374.487-67.153-445.215-491.516-24.932-149.592-190.558-259.999-324.121-316.987,0,0,8.905,35.618,49.864,87.261,40.96,51.644,138.907,126.441,153.154,258.224,0,0-117.536-119.318-226.168-119.318,0,0,67.672,146.03,245.758,197.675,0,0-153.153-24.932-336.582-103.289,0,0,103.288,144.248,270.69,217.265,0,0-171.867,63.225-485.299-77.463,0,0,99.729,174.522,413.16,201.236,0,0-128.222,23.153-194.114,17.81,0,0,117.531,101.514,316.987,117.541,0,0-158.497,21.369-334.802,12.465,0,0,103.29,65.892,295.623,96.167l-147.812,10.685s93.045,18.701,169.623,51.201c76.578,32.5,127.773,90.379,261.338,104.627,0,0-70.344,16.028-134.455,10.685,0,0,154.044,41.849,238.635,71.234-97.015-284.377-334.748-314.721-289.393-632.202-17.988,245.119,272.838,354.254,409.597,637.548,49.863,103.291,128.222,203.018,272.471,203.018,0,0-65.894-89.043-115.756-130.002-49.863-40.96-73.014-108.633-16.027-154.935l12.465-73.014s1.904,64.11,171.024,74.795c169.121-10.685,171.024-74.795,171.024-74.795l12.465,73.014c56.987,46.302,33.836,113.976-16.028,154.935-49.863,40.959-115.756,130.002-115.756,130.002,144.249,0,222.608-99.727,272.47-203.018,49.863-103.291,64.111-183.429,243.977-313.432,179.866-130.003,165.621-324.116,165.621-324.116,21.37,149.592-28.494,288.499-126.441,365.075-97.946,76.576-162.952,267.127-162.952,267.127,84.591-29.384,238.635-71.234,238.635-71.234-64.111,5.343-134.455-10.685-134.455-10.685,133.565-14.248,184.761-72.126,261.338-104.627,76.578-32.5,169.623-51.201,169.623-51.201l-147.812-10.685c192.333-30.275,295.623-96.167,295.623-96.167-176.305,8.904-334.802-12.465-334.802-12.465,199.457-16.027,316.987-117.541,316.987-117.541-65.892,5.343-194.114-17.81-194.114-17.81,313.431-26.714,413.16-201.236,413.16-201.236-313.432,140.688-485.299,77.463-485.299,77.463,167.402-73.016,270.69-217.265,270.69-217.265-183.43,78.357-336.582,103.289-336.582,103.289,178.086-51.645,245.758-197.675,245.758-197.675-108.633,0-226.169,119.318-226.169,119.318,14.247-131.783,112.195-206.58,153.155-258.224,40.959-51.644,49.864-87.261,49.864-87.261-133.563,56.988-299.189,167.394-324.121,316.987-70.728,424.363-337.289,370.097-445.215,491.516-28.493,32.055-56.989,162.059-56.989,162.059,14.246-81.919-11.578-184.32-81.922-195.004-70.343-10.685-91.734,63.219-91.734,63.219ZM2000,1906.933s-80.158,94.386-137.145,112.195c0,0,74.797,105.071,74.797,210.141s62.349,110.414,62.349,110.414c0,0,62.349-5.343,62.349-110.414s74.796-210.141,74.796-210.141c-56.987-17.808-137.145-112.195-137.145-112.195ZM2000,736.907s-203.021,302.746-174.527,616.177c0,0-56.987-251.1-21.37-427.406,0,0-163.842,169.183-126.443,439.873,0,0-69.453-201.239-194.113-258.226,0,0,35.617,24.932,24.932,185.21-10.685,160.278-170.965,217.266-49.865,452.339,0,0-112.193-85.48-78.357-252.882,33.835-167.402,97.944-276.035-16.032-382.887-113.975-106.851-270.692-352.61-270.692-352.61,0,0-5.343,190.553,44.521,375.762,49.865,185.209,165.619,514.667,206.579,559.19l-94.384-35.617s210.132,233.295,341.916,393.572c131.784,160.278,213.702,325.898,213.702,325.898,0,0,76.577-56.987,81.92-149.592,5.343-92.605-96.167-186.991-131.784-220.827-35.617-33.836-154.934-122.878-140.687-311.649,0,0,16.028,140.689,156.715,213.702,140.688,73.014,215.522-87.263,227.968-186.99,12.447,99.727,87.281,260.005,227.968,186.99,140.688-73.014,156.716-213.702,156.716-213.702,14.247,188.771-105.07,277.813-140.687,311.649-35.617,33.836-137.126,128.222-131.784,220.827,5.343,92.605,81.92,149.592,81.92,149.592,0,0,81.919-165.619,213.702-325.898,131.783-160.277,341.916-393.572,341.916-393.572l-94.385,35.617c40.961-44.522,156.715-373.98,206.579-559.19,49.865-185.208,44.522-375.762,44.522-375.762,0,0-156.717,245.759-270.692,352.61-113.976,106.852-49.867,215.485-16.032,382.887,33.836,167.401-78.357,252.882-78.357,252.882,121.099-235.073-39.181-292.06-49.866-452.339-10.685-160.277,24.932-185.21,24.932-185.21-124.66,56.987-194.113,258.226-194.113,258.226,37.399-270.689-126.442-439.873-126.442-439.873,35.617,176.306-21.37,427.406-21.37,427.406,28.494-313.432-174.527-616.177-174.527-616.177Z" style="fill-rule: evenodd;"></path>
        <path d="M1344.633,1691.446l-94.384-35.617s210.132,233.295,341.916,393.572c131.784,160.278,213.702,325.898,213.702,325.898,0,0,76.577-56.987,81.92-149.592,5.343-92.605-96.167-186.991-131.784-220.827-35.617-33.836-154.934-122.878-140.687-311.649-57.154,213.826,87.428,302.623,192.499,416.597,105.07,113.973,1.781,204.799,1.781,204.799-37.398-64.11-122.879-190.551-252.881-341.924-130.003-151.373-237.294-270.246-237.294-270.246l25.212-11.011Z" style="fill: #cbcbcb; fill-rule: evenodd;"></path>
        <path d="M1508.479,1292.535c-10.685,160.278-170.965,217.266-49.865,452.339-75.869-152.369,2.852-226.954,54.498-339.148,51.645-112.193,26.712-211.923,26.712-211.923,56.987,42.741,137.837,171.748,137.837,171.748,0,0-69.453-201.239-194.113-258.226,0,0,35.617,24.932,24.932,185.21" style="fill: #cbcbcb; fill-rule: evenodd;"></path>
        <path d="M1380.257,1491.992c33.835-167.402,97.944-276.035-16.032-382.887-113.975-106.851-270.692-352.61-270.692-352.61,0,0-5.343,190.553,44.521,375.762,20.441,75.92,51.952,176.076,84.845,270.911-69.871-216.761-81.113-471.82-81.113-471.82,0,0,80.142,77.469,154.938,173.634,74.796,96.166,119.318,154.935,78.359,302.746-40.96,147.811,12.971,231.923,12.971,231.923-13.36-38.697-19.861-87.97-7.797-147.657" style="fill: #cbcbcb; fill-rule: evenodd;"></path>
        <path d="M1758.869,1058.458c-7.124,165.621,66.604,294.626,66.604,294.626,0,0-56.987-251.1-21.37-427.406,0,0-163.842,169.183-126.443,439.873.711-184.423,81.209-307.093,81.209-307.093" style="fill: #cbcbcb; fill-rule: evenodd;"></path>
        <path d="M2000,736.907s-203.021,302.746-174.527,616.177c.713-248.536,141.758-469.15,141.758-469.15l32.769,268.908v-415.936Z" style="fill: #cbcbcb; fill-rule: evenodd;"></path>
        <path d="M840.785,2148.995c306.306,81.919,381.104-26.713,381.104-26.713-96.167-26.714-167.4-105.071-167.4-105.071,108.632,7.124,168.138.14,168.138.14,0,0-153.153-24.932-336.582-103.289,0,0,103.288,144.248,270.69,217.265,0,0-171.867,63.225-485.299-77.463,0,0,99.729,174.522,413.16,201.236,0,0-128.222,23.153-194.114,17.81,0,0,117.531,101.514,316.987,117.541-128.059-31.269-208.188-86.52-208.188-86.52,94.384-10.685,172.743-60.55,172.743-60.55-192.332-16.027-331.24-94.386-331.24-94.386" style="fill: #cbcbcb; fill-rule: evenodd;"></path>
        <path d="M976.869,1819.677s67.672,146.03,245.758,197.675c-109.676-49.724-182.386-151.512-182.386-151.512,62.33,12.465,186.991,113.975,186.991,113.975,4.605-37.538-1.781-103.289-49.865-186.991-48.083-83.701-113.975-142.468-113.975-142.468,101.509,49.865,179.867,160.278,211.922,208.36,32.055,48.082,21.372,115.756,108.632,290.28,87.261,174.524,220.832,217.266,306.314,247.54,85.481,30.274,136.084,167.535,136.084,167.535,0,0-28.495-130.004-56.989-162.059-107.927-121.419-374.487-67.153-445.215-491.516-24.932-149.592-190.558-259.999-324.121-316.987,0,0,8.905,35.618,49.864,87.261,40.96,51.644,138.907,126.441,153.154,258.224,0,0-117.536-119.318-226.168-119.318" style="fill: #cbcbcb; fill-rule: evenodd;"></path>
        <path d="M1168.291,2499.083l-147.812,10.685s93.045,18.701,169.623,51.201c76.578,32.5,127.773,90.379,261.338,104.627,0,0-70.344,16.028-134.455,10.685,0,0,154.044,41.849,238.635,71.234-97.014-284.377-334.748-314.72-289.393-632.202-30.852,203.335,45.587,317.729,115.04,392.525,69.453,74.796,76.577,124.661,76.577,124.661-32.055,1.781-113.084-23.151-167.4-54.316-54.317-31.164-110.407-53.425-110.407-53.425,29.384-1.781,81.919-30.274,81.919-30.274-88.151-4.452-237.742-62.333-237.742-62.333l183.256-41.701s-158.497,21.369-334.802,12.465c0,0,103.29,65.892,295.623,96.167" style="fill: #cbcbcb; fill-rule: evenodd;"></path>
        <path d="M1349.656,2347.274c92.716,117.771,240.013,227.121,326.167,405.587,49.863,103.291,128.222,203.018,272.471,203.018,0,0-65.894-89.043-115.756-130.002-49.863-40.96-73.014-108.633-16.027-154.935l12.465-73.014-29.685,62.612c-37.398,30.275-42.74,70.344-42.74,70.344-8.904,71.233,55.206,132.675,55.206,132.675-36.508-11.576-72.124-73.906-113.084-142.469-40.959-68.564-83.701-133.565-156.716-190.552-73.016-56.987-192.301-183.263-192.301-183.263" style="fill: #cbcbcb; fill-rule: evenodd;"></path>
        <path d="M1908.266,2369.066c-70.344,10.685-96.169,113.086-81.922,195.004,0,0,4.114-79.837,45.963-123.467,41.849-43.63,109.355-10.685,127.692,56.097v-64.415s-21.391-73.904-91.734-63.219" style="fill: #cbcbcb; fill-rule: evenodd;"></path>
        <path d="M1917.719,2775.403c-22.26-51.646-66.783-48.082-66.783-48.082-2.348-41.637,91.976-19.511,129.211-11.329-25.418-6.043-68.78-15.909-90.62-18.336-32.056-3.562-56.098-8.015-60.55,39.179,0,0,65.893,7.124,78.359,66.783,12.465,59.659,34.847,125.551,92.665,146.921v-47.961c-51.721-8.436-62.371-80.982-82.281-127.174" style="fill: #cbcbcb; fill-rule: evenodd;"></path>
        <path d="M1947.981,3095.956s-121.1,17.809-176.306-76.576c0,0,122.646,18.821,228.325,4.019-113.637,0-227.273-50.703-318.835-152.109,0,0-11.578,88.153,72.122,194.115,83.7,105.962,246.713,189.662,246.713,189.662v-114.589s-82.295,30.276-144.624-30.274c0,0,24.932,19.588,92.605-14.248" style="fill: #cbcbcb; fill-rule: evenodd;"></path>
        <path d="M2655.367,1691.446l94.385-35.617s-210.133,233.295-341.916,393.572c-131.784,160.278-213.702,325.898-213.702,325.898,0,0-76.577-56.987-81.92-149.592-5.343-92.605,96.167-186.991,131.784-220.827,35.617-33.836,154.934-122.878,140.687-311.649,57.154,213.826-87.428,302.623-192.499,416.597-105.071,113.973-1.781,204.799-1.781,204.799,37.398-64.11,122.879-190.551,252.882-341.924,130.003-151.373,237.294-270.246,237.294-270.246l-25.213-11.011Z" style="fill: #cbcbcb; fill-rule: evenodd;"></path>
        <path d="M2491.52,1292.535c10.685,160.278,170.965,217.266,49.866,452.339,75.869-152.369-2.852-226.954-54.498-339.148-51.645-112.193-26.711-211.923-26.711-211.923-56.987,42.741-137.837,171.748-137.837,171.748,0,0,69.454-201.239,194.113-258.226,0,0-35.617,24.932-24.932,185.21" style="fill: #cbcbcb; fill-rule: evenodd;"></path>
        <path d="M2619.743,1491.992c-33.835-167.402-97.944-276.035,16.032-382.887,113.975-106.851,270.692-352.61,270.692-352.61,0,0,5.343,190.553-44.522,375.762-20.44,75.92-51.951,176.076-84.844,270.911,69.871-216.761,81.113-471.82,81.113-471.82,0,0-80.141,77.469-154.938,173.634-74.797,96.166-119.318,154.935-78.359,302.746,40.96,147.811-12.971,231.923-12.971,231.923,13.36-38.697,19.861-87.97,7.796-147.657" style="fill: #cbcbcb; fill-rule: evenodd;"></path>
        <path d="M2241.131,1058.458c7.124,165.621-66.604,294.626-66.604,294.626,0,0,56.987-251.1,21.37-427.406,0,0,163.841,169.183,126.442,439.873-.711-184.423-81.209-307.093-81.209-307.093" style="fill: #cbcbcb; fill-rule: evenodd;"></path>
        <path d="M2000,736.907s203.021,302.746,174.527,616.177c-.713-248.536-141.758-469.15-141.758-469.15l-32.769,268.908v-415.936Z" style="fill: #cbcbcb; fill-rule: evenodd;"></path>
        <path d="M3159.215,2148.995c-306.307,81.919-381.105-26.713-381.105-26.713,96.168-26.714,167.401-105.071,167.401-105.071-108.632,7.124-168.138.14-168.138.14,0,0,153.152-24.932,336.582-103.289,0,0-103.288,144.248-270.69,217.265,0,0,171.868,63.225,485.299-77.463,0,0-99.729,174.522-413.16,201.236,0,0,128.222,23.153,194.114,17.81,0,0-117.53,101.514-316.987,117.541,128.059-31.269,208.188-86.52,208.188-86.52-94.385-10.685-172.743-60.55-172.743-60.55,192.333-16.027,331.24-94.386,331.24-94.386" style="fill: #cbcbcb; fill-rule: evenodd;"></path>
        <path d="M3023.131,1819.677s-67.672,146.03-245.758,197.675c109.675-49.724,182.386-151.512,182.386-151.512-62.33,12.465-186.991,113.975-186.991,113.975-4.605-37.538,1.781-103.289,49.865-186.991,48.083-83.701,113.975-142.468,113.975-142.468-101.508,49.865-179.867,160.278-211.922,208.36-32.055,48.082-21.372,115.756-108.632,290.28-87.261,174.524-220.832,217.266-306.314,247.54-85.481,30.274-136.085,167.535-136.085,167.535,0,0,28.496-130.004,56.989-162.059,107.926-121.419,374.487-67.153,445.215-491.516,24.932-149.592,190.558-259.999,324.121-316.987,0,0-8.904,35.618-49.864,87.261-40.96,51.644-138.908,126.441-153.155,258.224,0,0,117.536-119.318,226.169-119.318" style="fill: #cbcbcb; fill-rule: evenodd;"></path>
        <path d="M2831.71,2499.083l147.812,10.685s-93.045,18.701-169.623,51.201c-76.577,32.5-127.773,90.379-261.338,104.627,0,0,70.344,16.028,134.455,10.685,0,0-154.044,41.849-238.635,71.234,97.014-284.377,334.748-314.72,289.393-632.202,30.852,203.335-45.587,317.729-115.04,392.525-69.453,74.796-76.578,124.661-76.578,124.661,32.055,1.781,113.084-23.151,167.4-54.316,54.317-31.164,110.407-53.425,110.407-53.425-29.384-1.781-81.919-30.274-81.919-30.274,88.151-4.452,237.742-62.333,237.742-62.333l-183.256-41.701s158.497,21.369,334.802,12.465c0,0-103.29,65.892-295.623,96.167" style="fill: #cbcbcb; fill-rule: evenodd;"></path>
        <path d="M2650.343,2347.274c-92.715,117.771-240.013,227.121-326.167,405.587-49.862,103.291-128.221,203.018-272.47,203.018,0,0,65.894-89.043,115.756-130.002,49.863-40.96,73.014-108.633,16.028-154.935l-12.465-73.014,29.684,62.612c37.398,30.275,42.74,70.344,42.74,70.344,8.904,71.233-55.206,132.675-55.206,132.675,36.508-11.576,72.124-73.906,113.084-142.469,40.96-68.564,83.7-133.565,156.716-190.552,73.016-56.987,192.3-183.263,192.3-183.263" style="fill: #cbcbcb; fill-rule: evenodd;"></path>
        <path d="M2091.734,2369.066c70.344,10.685,96.168,113.086,81.922,195.004,0,0-4.114-79.837-45.963-123.467-41.849-43.63-109.355-10.685-127.693,56.097v-64.415s21.391-73.904,91.734-63.219" style="fill: #cbcbcb; fill-rule: evenodd;"></path>
        <path d="M2082.281,2775.403c22.261-51.646,66.783-48.082,66.783-48.082,2.348-41.637-91.977-19.511-129.211-11.329,25.418-6.043,68.78-15.909,90.621-18.336,32.056-3.562,56.098-8.015,60.55,39.179,0,0-65.893,7.124-78.359,66.783-12.465,59.659-34.847,125.551-92.666,146.921v-47.961c51.721-8.436,62.372-80.982,82.281-127.174" style="fill: #cbcbcb; fill-rule: evenodd;"></path>
        <path d="M2052.019,3095.956s121.099,17.809,176.305-76.576c0,0-122.645,18.821-228.325,4.019,113.638,0,227.273-50.703,318.835-152.109,0,0,11.579,88.153-72.122,194.115-83.7,105.962-246.713,189.662-246.713,189.662v-114.589s82.295,30.276,144.625-30.274c0,0-24.932,19.588-92.605-14.248" style="fill: #cbcbcb; fill-rule: evenodd;"></path>
        <path d="M2000,1906.933s-80.158,94.386-137.145,112.195c0,0,74.797,105.071,74.797,210.141s62.349,110.414,62.349,110.414c0,0,62.349-5.343,62.349-110.414s74.796-210.141,74.796-210.141c-56.987-17.808-137.145-112.195-137.145-112.195M1917.691,2037.229c42.74-28.495,82.308-86.373,82.308-86.373,0,0,39.567,57.878,82.308,86.373,0,0-23.15,51.644-33.836,114.865-10.685,63.221,6.346,133.85-48.472,151.961-54.818-18.111-37.787-88.74-48.472-151.961-10.686-63.221-33.836-114.865-33.836-114.865Z" style="fill: #cbcbcb; fill-rule: evenodd;"></path>
      </g>
    </g>
  </g></svg></g></g><defs><clipPath id="SvgjsClipPath1089"><rect width="1000" height="1000" x="0" y="0" rx="500" ry="500"></rect></clipPath></defs></svg></g><g id="dark-icon"><svg xmlns="http://www.w3.org/2000/svg" version="1.1" xmlns:xlink="http://www.w3.org/1999/xlink" width="1000" height="1000"><g clip-path="url(#SvgjsClipPath1090)"><rect width="1000" height="1000" fill="#ffffff"></rect><g transform="matrix(0.25,0,0,0.25,0,0)"><svg xmlns="http://www.w3.org/2000/svg" version="1.1" viewBox="0 0 4000 4000" width="4000" height="4000"><g>
    <g id="Layer_1">
      <rect width="4000" height="4000" style="fill: #fff;"></rect>
      <g>
        <path d="M1460.279,1987.982s-24.931,112.194,32.056,181.647c56.987,69.454,197.676,101.509,197.676,101.509,0,0-76.578-146.03-229.731-283.156M2539.721,1987.982s24.931,112.194-32.055,181.647c-56.988,69.454-197.676,101.509-197.676,101.509,0,0,76.578-146.03,229.731-283.156ZM2000,3445.615s-49.038-140.689-196.849-222.607c0,0,10.685,67.673,40.96,126.441,0,0-240.414-233.293-222.607-484.394,0,0-247.543-150.486-475.492-171.856l90.824-43.63s-231.515-99.725-391.791-105.068l96.166-64.111s-126.44-30.275-194.113-154.935c0,0,89.042,32.055,167.401,33.836,0,0-320.557-172.746-350.831-439.875,0,0,174.524,138.906,418.502,163.839,0,0-151.374-80.14-222.607-331.24,0,0,97.06,98.836,184.32,127.33,0,0-67.675-113.975-60.55-178.975,0,0,47.731,43.718,156.713,70.345,0,0-112.195-119.317-131.784-215.483l-20.48-89.045s81.919,51.646,211.922,94.386l44.521,17.81s-90.822-106.853-144.249-322.337c0,0,12.467,23.153,87.262,62.331,0,0-99.727-186.989-110.413-349.048,0,0,23.148,40.958,58.766,80.137,0,0-58.768-153.154,12.467-495.078,0,0,142.469,260.005,272.472,368.638,0,0-10.686-96.166,7.122-169.182,0,0,23.153,101.508,96.167,167.4,73.015,65.892,163.838,122.879,188.771,172.743,0,0-7.124-167.401,128.222-322.335l5.343,103.289s73.016-48.082,135.345-121.098c62.33-73.015,118.501-183.429,118.501-183.429,0,0,56.171,110.413,118.501,183.429,62.33,73.016,135.346,121.098,135.346,121.098l5.343-103.289c135.346,154.935,128.222,322.335,128.222,322.335,24.932-49.865,115.756-106.851,188.771-172.743,73.013-65.892,96.167-167.4,96.167-167.4,17.809,73.016,7.122,169.182,7.122,169.182,130.003-108.632,272.472-368.638,272.472-368.638,71.235,341.924,12.467,495.078,12.467,495.078,35.618-39.179,58.766-80.137,58.766-80.137-10.685,162.059-110.413,349.048-110.413,349.048,74.795-39.179,87.262-62.331,87.262-62.331-53.426,215.483-144.249,322.337-144.249,322.337l44.521-17.81c130.002-42.74,211.922-94.386,211.922-94.386l-20.481,89.045c-19.589,96.166-131.783,215.483-131.783,215.483,108.982-26.627,156.713-70.345,156.713-70.345,7.124,65-60.55,178.975-60.55,178.975,87.261-28.494,184.321-127.33,184.321-127.33-71.234,251.1-222.608,331.24-222.608,331.24,243.978-24.933,418.502-163.839,418.502-163.839-30.274,267.129-350.831,439.875-350.831,439.875,78.359-1.781,167.401-33.836,167.401-33.836-67.674,124.66-194.113,154.935-194.113,154.935l96.166,64.111c-160.276,5.343-391.791,105.068-391.791,105.068l90.824,43.63c-227.949,21.37-475.492,171.856-475.492,171.856,17.808,251.101-222.607,484.394-222.607,484.394,30.276-58.768,40.96-126.441,40.96-126.441-147.811,81.919-196.849,222.607-196.849,222.607ZM1681.165,2871.289s-11.578,88.153,72.122,194.115c83.7,105.962,246.713,189.662,246.713,189.662,0,0,163.014-83.7,246.713-189.662,83.7-105.962,72.122-194.115,72.122-194.115-183.122,202.812-454.548,202.812-637.67,0ZM2000,2720.807s-78.417-19.59-110.474-23.151c-32.056-3.562-56.098-8.015-60.55,39.179,0,0,65.893,7.124,78.359,66.783,12.465,59.659,34.847,125.551,92.665,146.921,57.819-21.37,80.2-87.261,92.666-146.921,12.466-59.659,78.359-66.783,78.359-66.783-4.452-47.194-28.494-42.741-60.55-39.179-32.056,3.561-110.474,23.151-110.474,23.151ZM2000,2432.285s-21.391-73.904-91.734-63.219c-70.344,10.685-96.169,113.086-81.922,195.004,0,0-28.495-130.004-56.989-162.059-107.927-121.419-374.487-67.153-445.215-491.516-24.932-149.592-190.558-259.999-324.121-316.987,0,0,8.905,35.618,49.864,87.261,40.96,51.644,138.907,126.441,153.154,258.224,0,0-117.536-119.318-226.168-119.318,0,0,67.672,146.03,245.758,197.675,0,0-153.153-24.932-336.582-103.289,0,0,103.288,144.248,270.69,217.265,0,0-171.867,63.225-485.299-77.463,0,0,99.729,174.522,413.16,201.236,0,0-128.222,23.153-194.114,17.81,0,0,117.531,101.514,316.987,117.541,0,0-158.497,21.369-334.802,12.465,0,0,103.29,65.892,295.623,96.167l-147.812,10.685s93.045,18.701,169.623,51.201c76.578,32.5,127.773,90.379,261.338,104.627,0,0-70.344,16.028-134.455,10.685,0,0,154.044,41.849,238.635,71.234-97.015-284.377-334.748-314.721-289.393-632.202-17.988,245.119,272.838,354.254,409.597,637.548,49.863,103.291,128.222,203.018,272.471,203.018,0,0-65.894-89.043-115.756-130.002-49.863-40.96-73.014-108.633-16.027-154.935l12.465-73.014s1.904,64.11,171.024,74.795c169.121-10.685,171.024-74.795,171.024-74.795l12.465,73.014c56.987,46.302,33.836,113.976-16.028,154.935-49.863,40.959-115.756,130.002-115.756,130.002,144.249,0,222.608-99.727,272.47-203.018,49.863-103.291,64.111-183.429,243.977-313.432,179.866-130.003,165.621-324.116,165.621-324.116,21.37,149.592-28.494,288.499-126.441,365.075-97.946,76.576-162.952,267.127-162.952,267.127,84.591-29.384,238.635-71.234,238.635-71.234-64.111,5.343-134.455-10.685-134.455-10.685,133.565-14.248,184.761-72.126,261.338-104.627,76.578-32.5,169.623-51.201,169.623-51.201l-147.812-10.685c192.333-30.275,295.623-96.167,295.623-96.167-176.305,8.904-334.802-12.465-334.802-12.465,199.457-16.027,316.987-117.541,316.987-117.541-65.892,5.343-194.114-17.81-194.114-17.81,313.431-26.714,413.16-201.236,413.16-201.236-313.432,140.688-485.299,77.463-485.299,77.463,167.402-73.016,270.69-217.265,270.69-217.265-183.43,78.357-336.582,103.289-336.582,103.289,178.086-51.645,245.758-197.675,245.758-197.675-108.633,0-226.169,119.318-226.169,119.318,14.247-131.783,112.195-206.58,153.155-258.224,40.959-51.644,49.864-87.261,49.864-87.261-133.563,56.988-299.189,167.394-324.121,316.987-70.728,424.363-337.289,370.097-445.215,491.516-28.493,32.055-56.989,162.059-56.989,162.059,14.246-81.919-11.578-184.32-81.922-195.004-70.343-10.685-91.734,63.219-91.734,63.219ZM2000,1906.933s-80.158,94.386-137.145,112.195c0,0,74.797,105.071,74.797,210.141s62.349,110.414,62.349,110.414c0,0,62.349-5.343,62.349-110.414s74.796-210.141,74.796-210.141c-56.987-17.808-137.145-112.195-137.145-112.195ZM2000,736.907s-203.021,302.746-174.527,616.177c0,0-56.987-251.1-21.37-427.406,0,0-163.842,169.183-126.443,439.873,0,0-69.453-201.239-194.113-258.226,0,0,35.617,24.932,24.932,185.21-10.685,160.278-170.965,217.266-49.865,452.339,0,0-112.193-85.48-78.357-252.882,33.835-167.402,97.944-276.035-16.032-382.887-113.975-106.851-270.692-352.61-270.692-352.61,0,0-5.343,190.553,44.521,375.762,49.865,185.209,165.619,514.667,206.579,559.19l-94.384-35.617s210.132,233.295,341.916,393.572c131.784,160.278,213.702,325.898,213.702,325.898,0,0,76.577-56.987,81.92-149.592,5.343-92.605-96.167-186.991-131.784-220.827-35.617-33.836-154.934-122.878-140.687-311.649,0,0,16.028,140.689,156.715,213.702,140.688,73.014,215.522-87.263,227.968-186.99,12.447,99.727,87.281,260.005,227.968,186.99,140.688-73.014,156.716-213.702,156.716-213.702,14.247,188.771-105.07,277.813-140.687,311.649-35.617,33.836-137.126,128.222-131.784,220.827,5.343,92.605,81.92,149.592,81.92,149.592,0,0,81.919-165.619,213.702-325.898,131.783-160.277,341.916-393.572,341.916-393.572l-94.385,35.617c40.961-44.522,156.715-373.98,206.579-559.19,49.865-185.208,44.522-375.762,44.522-375.762,0,0-156.717,245.759-270.692,352.61-113.976,106.852-49.867,215.485-16.032,382.887,33.836,167.401-78.357,252.882-78.357,252.882,121.099-235.073-39.181-292.06-49.866-452.339-10.685-160.277,24.932-185.21,24.932-185.21-124.66,56.987-194.113,258.226-194.113,258.226,37.399-270.689-126.442-439.873-126.442-439.873,35.617,176.306-21.37,427.406-21.37,427.406,28.494-313.432-174.527-616.177-174.527-616.177Z" style="fill-rule: evenodd;"></path>
        <path d="M1344.633,1691.446l-94.384-35.617s210.132,233.295,341.916,393.572c131.784,160.278,213.702,325.898,213.702,325.898,0,0,76.577-56.987,81.92-149.592,5.343-92.605-96.167-186.991-131.784-220.827-35.617-33.836-154.934-122.878-140.687-311.649-57.154,213.826,87.428,302.623,192.499,416.597,105.07,113.973,1.781,204.799,1.781,204.799-37.398-64.11-122.879-190.551-252.881-341.924-130.003-151.373-237.294-270.246-237.294-270.246l25.212-11.011Z" style="fill: #cbcbcb; fill-rule: evenodd;"></path>
        <path d="M1508.479,1292.535c-10.685,160.278-170.965,217.266-49.865,452.339-75.869-152.369,2.852-226.954,54.498-339.148,51.645-112.193,26.712-211.923,26.712-211.923,56.987,42.741,137.837,171.748,137.837,171.748,0,0-69.453-201.239-194.113-258.226,0,0,35.617,24.932,24.932,185.21" style="fill: #cbcbcb; fill-rule: evenodd;"></path>
        <path d="M1380.257,1491.992c33.835-167.402,97.944-276.035-16.032-382.887-113.975-106.851-270.692-352.61-270.692-352.61,0,0-5.343,190.553,44.521,375.762,20.441,75.92,51.952,176.076,84.845,270.911-69.871-216.761-81.113-471.82-81.113-471.82,0,0,80.142,77.469,154.938,173.634,74.796,96.166,119.318,154.935,78.359,302.746-40.96,147.811,12.971,231.923,12.971,231.923-13.36-38.697-19.861-87.97-7.797-147.657" style="fill: #cbcbcb; fill-rule: evenodd;"></path>
        <path d="M1758.869,1058.458c-7.124,165.621,66.604,294.626,66.604,294.626,0,0-56.987-251.1-21.37-427.406,0,0-163.842,169.183-126.443,439.873.711-184.423,81.209-307.093,81.209-307.093" style="fill: #cbcbcb; fill-rule: evenodd;"></path>
        <path d="M2000,736.907s-203.021,302.746-174.527,616.177c.713-248.536,141.758-469.15,141.758-469.15l32.769,268.908v-415.936Z" style="fill: #cbcbcb; fill-rule: evenodd;"></path>
        <path d="M840.785,2148.995c306.306,81.919,381.104-26.713,381.104-26.713-96.167-26.714-167.4-105.071-167.4-105.071,108.632,7.124,168.138.14,168.138.14,0,0-153.153-24.932-336.582-103.289,0,0,103.288,144.248,270.69,217.265,0,0-171.867,63.225-485.299-77.463,0,0,99.729,174.522,413.16,201.236,0,0-128.222,23.153-194.114,17.81,0,0,117.531,101.514,316.987,117.541-128.059-31.269-208.188-86.52-208.188-86.52,94.384-10.685,172.743-60.55,172.743-60.55-192.332-16.027-331.24-94.386-331.24-94.386" style="fill: #cbcbcb; fill-rule: evenodd;"></path>
        <path d="M976.869,1819.677s67.672,146.03,245.758,197.675c-109.676-49.724-182.386-151.512-182.386-151.512,62.33,12.465,186.991,113.975,186.991,113.975,4.605-37.538-1.781-103.289-49.865-186.991-48.083-83.701-113.975-142.468-113.975-142.468,101.509,49.865,179.867,160.278,211.922,208.36,32.055,48.082,21.372,115.756,108.632,290.28,87.261,174.524,220.832,217.266,306.314,247.54,85.481,30.274,136.084,167.535,136.084,167.535,0,0-28.495-130.004-56.989-162.059-107.927-121.419-374.487-67.153-445.215-491.516-24.932-149.592-190.558-259.999-324.121-316.987,0,0,8.905,35.618,49.864,87.261,40.96,51.644,138.907,126.441,153.154,258.224,0,0-117.536-119.318-226.168-119.318" style="fill: #cbcbcb; fill-rule: evenodd;"></path>
        <path d="M1168.291,2499.083l-147.812,10.685s93.045,18.701,169.623,51.201c76.578,32.5,127.773,90.379,261.338,104.627,0,0-70.344,16.028-134.455,10.685,0,0,154.044,41.849,238.635,71.234-97.014-284.377-334.748-314.72-289.393-632.202-30.852,203.335,45.587,317.729,115.04,392.525,69.453,74.796,76.577,124.661,76.577,124.661-32.055,1.781-113.084-23.151-167.4-54.316-54.317-31.164-110.407-53.425-110.407-53.425,29.384-1.781,81.919-30.274,81.919-30.274-88.151-4.452-237.742-62.333-237.742-62.333l183.256-41.701s-158.497,21.369-334.802,12.465c0,0,103.29,65.892,295.623,96.167" style="fill: #cbcbcb; fill-rule: evenodd;"></path>
        <path d="M1349.656,2347.274c92.716,117.771,240.013,227.121,326.167,405.587,49.863,103.291,128.222,203.018,272.471,203.018,0,0-65.894-89.043-115.756-130.002-49.863-40.96-73.014-108.633-16.027-154.935l12.465-73.014-29.685,62.612c-37.398,30.275-42.74,70.344-42.74,70.344-8.904,71.233,55.206,132.675,55.206,132.675-36.508-11.576-72.124-73.906-113.084-142.469-40.959-68.564-83.701-133.565-156.716-190.552-73.016-56.987-192.301-183.263-192.301-183.263" style="fill: #cbcbcb; fill-rule: evenodd;"></path>
        <path d="M1908.266,2369.066c-70.344,10.685-96.169,113.086-81.922,195.004,0,0,4.114-79.837,45.963-123.467,41.849-43.63,109.355-10.685,127.692,56.097v-64.415s-21.391-73.904-91.734-63.219" style="fill: #cbcbcb; fill-rule: evenodd;"></path>
        <path d="M1917.719,2775.403c-22.26-51.646-66.783-48.082-66.783-48.082-2.348-41.637,91.976-19.511,129.211-11.329-25.418-6.043-68.78-15.909-90.62-18.336-32.056-3.562-56.098-8.015-60.55,39.179,0,0,65.893,7.124,78.359,66.783,12.465,59.659,34.847,125.551,92.665,146.921v-47.961c-51.721-8.436-62.371-80.982-82.281-127.174" style="fill: #cbcbcb; fill-rule: evenodd;"></path>
        <path d="M1947.981,3095.956s-121.1,17.809-176.306-76.576c0,0,122.646,18.821,228.325,4.019-113.637,0-227.273-50.703-318.835-152.109,0,0-11.578,88.153,72.122,194.115,83.7,105.962,246.713,189.662,246.713,189.662v-114.589s-82.295,30.276-144.624-30.274c0,0,24.932,19.588,92.605-14.248" style="fill: #cbcbcb; fill-rule: evenodd;"></path>
        <path d="M2655.367,1691.446l94.385-35.617s-210.133,233.295-341.916,393.572c-131.784,160.278-213.702,325.898-213.702,325.898,0,0-76.577-56.987-81.92-149.592-5.343-92.605,96.167-186.991,131.784-220.827,35.617-33.836,154.934-122.878,140.687-311.649,57.154,213.826-87.428,302.623-192.499,416.597-105.071,113.973-1.781,204.799-1.781,204.799,37.398-64.11,122.879-190.551,252.882-341.924,130.003-151.373,237.294-270.246,237.294-270.246l-25.213-11.011Z" style="fill: #cbcbcb; fill-rule: evenodd;"></path>
        <path d="M2491.52,1292.535c10.685,160.278,170.965,217.266,49.866,452.339,75.869-152.369-2.852-226.954-54.498-339.148-51.645-112.193-26.711-211.923-26.711-211.923-56.987,42.741-137.837,171.748-137.837,171.748,0,0,69.454-201.239,194.113-258.226,0,0-35.617,24.932-24.932,185.21" style="fill: #cbcbcb; fill-rule: evenodd;"></path>
        <path d="M2619.743,1491.992c-33.835-167.402-97.944-276.035,16.032-382.887,113.975-106.851,270.692-352.61,270.692-352.61,0,0,5.343,190.553-44.522,375.762-20.44,75.92-51.951,176.076-84.844,270.911,69.871-216.761,81.113-471.82,81.113-471.82,0,0-80.141,77.469-154.938,173.634-74.797,96.166-119.318,154.935-78.359,302.746,40.96,147.811-12.971,231.923-12.971,231.923,13.36-38.697,19.861-87.97,7.796-147.657" style="fill: #cbcbcb; fill-rule: evenodd;"></path>
        <path d="M2241.131,1058.458c7.124,165.621-66.604,294.626-66.604,294.626,0,0,56.987-251.1,21.37-427.406,0,0,163.841,169.183,126.442,439.873-.711-184.423-81.209-307.093-81.209-307.093" style="fill: #cbcbcb; fill-rule: evenodd;"></path>
        <path d="M2000,736.907s203.021,302.746,174.527,616.177c-.713-248.536-141.758-469.15-141.758-469.15l-32.769,268.908v-415.936Z" style="fill: #cbcbcb; fill-rule: evenodd;"></path>
        <path d="M3159.215,2148.995c-306.307,81.919-381.105-26.713-381.105-26.713,96.168-26.714,167.401-105.071,167.401-105.071-108.632,7.124-168.138.14-168.138.14,0,0,153.152-24.932,336.582-103.289,0,0-103.288,144.248-270.69,217.265,0,0,171.868,63.225,485.299-77.463,0,0-99.729,174.522-413.16,201.236,0,0,128.222,23.153,194.114,17.81,0,0-117.53,101.514-316.987,117.541,128.059-31.269,208.188-86.52,208.188-86.52-94.385-10.685-172.743-60.55-172.743-60.55,192.333-16.027,331.24-94.386,331.24-94.386" style="fill: #cbcbcb; fill-rule: evenodd;"></path>
        <path d="M3023.131,1819.677s-67.672,146.03-245.758,197.675c109.675-49.724,182.386-151.512,182.386-151.512-62.33,12.465-186.991,113.975-186.991,113.975-4.605-37.538,1.781-103.289,49.865-186.991,48.083-83.701,113.975-142.468,113.975-142.468-101.508,49.865-179.867,160.278-211.922,208.36-32.055,48.082-21.372,115.756-108.632,290.28-87.261,174.524-220.832,217.266-306.314,247.54-85.481,30.274-136.085,167.535-136.085,167.535,0,0,28.496-130.004,56.989-162.059,107.926-121.419,374.487-67.153,445.215-491.516,24.932-149.592,190.558-259.999,324.121-316.987,0,0-8.904,35.618-49.864,87.261-40.96,51.644-138.908,126.441-153.155,258.224,0,0,117.536-119.318,226.169-119.318" style="fill: #cbcbcb; fill-rule: evenodd;"></path>
        <path d="M2831.71,2499.083l147.812,10.685s-93.045,18.701-169.623,51.201c-76.577,32.5-127.773,90.379-261.338,104.627,0,0,70.344,16.028,134.455,10.685,0,0-154.044,41.849-238.635,71.234,97.014-284.377,334.748-314.72,289.393-632.202,30.852,203.335-45.587,317.729-115.04,392.525-69.453,74.796-76.578,124.661-76.578,124.661,32.055,1.781,113.084-23.151,167.4-54.316,54.317-31.164,110.407-53.425,110.407-53.425-29.384-1.781-81.919-30.274-81.919-30.274,88.151-4.452,237.742-62.333,237.742-62.333l-183.256-41.701s158.497,21.369,334.802,12.465c0,0-103.29,65.892-295.623,96.167" style="fill: #cbcbcb; fill-rule: evenodd;"></path>
        <path d="M2650.343,2347.274c-92.715,117.771-240.013,227.121-326.167,405.587-49.862,103.291-128.221,203.018-272.47,203.018,0,0,65.894-89.043,115.756-130.002,49.863-40.96,73.014-108.633,16.028-154.935l-12.465-73.014,29.684,62.612c37.398,30.275,42.74,70.344,42.74,70.344,8.904,71.233-55.206,132.675-55.206,132.675,36.508-11.576,72.124-73.906,113.084-142.469,40.96-68.564,83.7-133.565,156.716-190.552,73.016-56.987,192.3-183.263,192.3-183.263" style="fill: #cbcbcb; fill-rule: evenodd;"></path>
        <path d="M2091.734,2369.066c70.344,10.685,96.168,113.086,81.922,195.004,0,0-4.114-79.837-45.963-123.467-41.849-43.63-109.355-10.685-127.693,56.097v-64.415s21.391-73.904,91.734-63.219" style="fill: #cbcbcb; fill-rule: evenodd;"></path>
        <path d="M2082.281,2775.403c22.261-51.646,66.783-48.082,66.783-48.082,2.348-41.637-91.977-19.511-129.211-11.329,25.418-6.043,68.78-15.909,90.621-18.336,32.056-3.562,56.098-8.015,60.55,39.179,0,0-65.893,7.124-78.359,66.783-12.465,59.659-34.847,125.551-92.666,146.921v-47.961c51.721-8.436,62.372-80.982,82.281-127.174" style="fill: #cbcbcb; fill-rule: evenodd;"></path>
        <path d="M2052.019,3095.956s121.099,17.809,176.305-76.576c0,0-122.645,18.821-228.325,4.019,113.638,0,227.273-50.703,318.835-152.109,0,0,11.579,88.153-72.122,194.115-83.7,105.962-246.713,189.662-246.713,189.662v-114.589s82.295,30.276,144.625-30.274c0,0-24.932,19.588-92.605-14.248" style="fill: #cbcbcb; fill-rule: evenodd;"></path>
        <path d="M2000,1906.933s-80.158,94.386-137.145,112.195c0,0,74.797,105.071,74.797,210.141s62.349,110.414,62.349,110.414c0,0,62.349-5.343,62.349-110.414s74.796-210.141,74.796-210.141c-56.987-17.808-137.145-112.195-137.145-112.195M1917.691,2037.229c42.74-28.495,82.308-86.373,82.308-86.373,0,0,39.567,57.878,82.308,86.373,0,0-23.15,51.644-33.836,114.865-10.685,63.221,6.346,133.85-48.472,151.961-54.818-18.111-37.787-88.74-48.472-151.961-10.686-63.221-33.836-114.865-33.836-114.865Z" style="fill: #cbcbcb; fill-rule: evenodd;"></path>
      </g>
    </g>
  </g></svg></g></g><defs><clipPath id="SvgjsClipPath1090"><rect width="1000" height="1000" x="0" y="0" rx="500" ry="500"></rect></clipPath></defs></svg></g></svg>